<?xml version="1.0" encoding="utf-8" ?>
<svg baseProfile="tiny" height="100%" version="1.2" width="100%" xmlns="http://www.w3.org/2000/svg" xmlns:ev="http://www.w3.org/2001/xml-events" xmlns:xlink="http://www.w3.org/1999/xlink"><defs /><polygon fill="black" points="28.0,30.5 27.0,30.5 26.0,30.5 25.0,30.5 24.0,30.5 23.0,30.5 22.0,30.5 21.0,30.5 20.0,30.5 19.0,30.5 18.5,30.0 18.0,29.5 17.5,29.0 17.0,28.5 16.0,28.5 15.0,28.5 14.0,28.5 13.0,28.5 12.0,28.5 11.0,28.5 10.0,28.5 9.0,28.5 8.0,28.5 7.0,28.5 6.0,28.5 5.5,28.0 5.5,27.0 5.5,26.0 5.5,25.0 5.5,24.0 5.5,23.0 5.5,22.0 5.5,21.0 5.5,20.0 5.5,19.0 6.0,18.5 7.0,18.5 8.0,18.5 9.0,18.5 10.0,18.5 11.0,18.5 12.0,18.5 13.0,18.5 14.0,18.5 15.0,18.5 16.0,18.5 17.0,18.5 17.5,18.0 18.0,17.5 18.5,17.0 18.5,16.0 18.5,15.0 18.5,14.0 18.5,13.0 18.5,12.0 18.5,11.0 18.5,10.0 18.5,9.0 18.5,8.0 18.5,7.0 18.5,6.0 19.0,5.5 20.0,5.5 21.0,5.5 22.0,5.5 23.0,5.5 24.0,5.5 25.0,5.5 26.0,5.5 27.0,5.5 28.0,5.5 28.5,6.0 28.5,7.0 28.5,8.0 28.5,9.0 28.5,10.0 28.5,11.0 28.5,12.0 28.5,13.0 28.5,14.0 28.5,15.0 28.5,16.0 28.5,17.0 29.0,17.5 29.5,18.0 30.0,18.5 31.0,18.5 32.0,18.5 33.0,18.5 34.0,18.5 35.0,18.5 36.0,18.5 37.0,18.5 38.0,18.5 39.0,18.5 40.0,18.5 41.0,18.5 41.5,19.0 41.5,20.0 41.5,21.0 41.5,22.0 41.5,23.0 41.5,24.0 41.5,25.0 41.5,26.0 41.5,27.0 41.5,28.0 41.0,28.5 40.0,28.5 39.0,28.5 38.0,28.5 37.0,28.5 36.0,28.5 35.0,28.5 34.0,28.5 33.0,28.5 32.0,28.5 31.0,28.5 30.0,28.5 29.5,29.0 29.0,29.5 28.5,30.0 28.0,30.5" stroke="none" fill="white" /></svg>